<?xml version="1.0" encoding="utf-8"?>
<!-- Generator: Adobe Illustrator 26.4.1, SVG Export Plug-In . SVG Version: 6.00 Build 0)  -->
<svg version="1.1" id="Layer_1" xmlns="http://www.w3.org/2000/svg" xmlns:xlink="http://www.w3.org/1999/xlink" x="0px" y="0px"
	 viewBox="0 0 120 36" style="enable-background:new 0 0 120 36;" xml:space="preserve">
<style type="text/css">
	.st0{fill:#FFFFFF;}
</style>
<g>
	<g>
		<path class="st0" d="M5.7,13.2c2.4-0.8,4.4-0.2,6.1,1.7l-2.8,3.3c-0.8-0.5-1.5-0.7-2.2-0.5c-1.7,0.7-2.4,2-2.1,4.1
			c0.6,1.6,1.6,2.2,2.9,1.8c0.6-0.2,1.2-0.8,1.8-1.8l4,0.9C13.1,26,11.3,28,8.2,29c-2.3,0.7-4.4-0.2-6.2-2.7c-0.6-0.8-1-1.7-1.2-2.5
			c-1.2-3.7-0.1-6.9,3.3-9.7C4.3,13.8,4.9,13.5,5.7,13.2z"/>
		<path class="st0" d="M16,11.6l4.5-0.6l6.4,12.5l-4.2,3.3l-0.9-2.1l-3.5,0.5l-0.6,2.2l-4.6-1.6L16,11.6z M18.6,22.1l2.5-0.4
			L19.9,19l-0.7,0.1L18.6,22.1z"/>
		<path class="st0" d="M38.3,9.2c-0.1,10.2-0.2,15.5-0.4,16L35,25.5l-4.1-6l-0.1,6.3l-4,0.4c-0.4-4-0.7-9.1-0.8-15.3l3.9-0.3l3,4.8
			l1-5.4L38.3,9.2z"/>
		<path class="st0" d="M49.9,8.6c0.4,1.7,0.8,3.3,1,4.7c-1.4,0-2.7,0-3.8,0.1c0.3,4.4,0.5,8.1,0.5,11.3l-4.1,0.2
			c-0.3-1.9-0.6-5.1-0.7-9.6l-0.1-1.7c-1.3,0.1-2.7,0.2-4.1,0.4c0.1-2,0.3-3.6,0.5-4.8C42.1,9,45.7,8.8,49.9,8.6z"/>
		<path class="st0" d="M58.8,8.5c2.6,0,4.4,1.2,5.5,3.5c0.3,0.9,0.4,1.9,0.4,3c0,2.6-0.9,5-2.7,7.3c-1.5,1.5-3.3,2.2-5.6,2.2
			c-2.7-0.2-4.4-1.6-5.2-4.3c-0.2-0.9-0.4-1.9-0.4-3c0.3-4,2.1-6.7,5.5-8.2C57.1,8.7,58,8.5,58.8,8.5z M55.2,17.5
			c0.2,1.4,0.8,2.2,2,2.2c1.1,0,2.1-0.8,3.2-2.3c0.4-0.7,0.5-1.5,0.5-2.4c0-1.4-0.6-2.2-1.9-2.2c-1.3,0-2.5,1-3.5,2.8
			C55.2,16.2,55.1,16.9,55.2,17.5z"/>
		<path class="st0" d="M78.7,9.3C81,9.7,82.5,11,83.4,13c0.2,0.5,0.2,1.1,0,1.7c-0.4,1.9-1.8,3.1-4.3,3.8c-1,0.2-2,0.3-2.7,0.2
			l-0.1,5.7l-5,0.3L70.5,9.3C74.5,9,77.2,9,78.7,9.3z M76.3,13.5l0,1.7c1.8,0,2.8-0.3,2.8-0.8c0.1-0.5-0.1-0.8-0.7-1
			C77.7,13.3,77,13.4,76.3,13.5z"/>
		<path class="st0" d="M88.2,9.9l4.5,0.5L96,24l-4.9,2.2l-0.4-2.3l-3.6-0.4l-1.1,2L82,23L88.2,9.9z M88.3,20.7l2.5,0.2L90.2,18
			l-0.7-0.1L88.3,20.7z"/>
		<path class="st0" d="M102.7,11.6l-2.4,11l6.9,0.9c-0.4,2.2-0.7,3.6-0.8,4.2l-11.3-1.1l2.8-15.1L102.7,11.6z"/>
		<path class="st0" d="M119.9,16.7l-2.5,3.1c-3.3-2.2-5-2.8-5.1-1.6c0.1,0.5,0.8,1.1,2,1.7c3.5,2.2,5,4.4,4.5,6.5
			c-0.2,1.4-1.3,2.3-3.1,2.9c-0.7,0.2-1.9,0.3-3.4,0.1c-1.7-0.3-3.6-1.2-5.5-2.9l2.1-3.1c3.1,2,4.7,2.5,4.9,1.5
			c0-0.5-1.3-1.5-3.9-3.1c-1.6-1.3-2.2-2.8-1.9-4.6c0.2-1.8,1.5-3.1,4-3.8C114.9,13.2,117.6,14.2,119.9,16.7z"/>
	</g>
</g>
</svg>
